# xmcd
#
# Track frame offsets:
#	150
#	17938
#	33664
#	47729
#	62888
#	82987
#	101002
#	114157
#	131309
#	143330
#
# Disc length: 2098 seconds
#
# Revision: 1
# Processed by: cddbd v1.5.2PL0 Copyright (c) Steve Scherf et al.
# Submitted via: audiograbber 1.83.01
#
DISCID=7b08300a
DTITLE=Left Lane Cruiser - All Can You Eat !!
DYEAR=2009
DGENRE=Punk
TTITLE0=Crackalacka
TTITLE1=Hillgrass Bluebilly
TTITLE2=Ol' Fashioned
TTITLE3=Hard Workin Man
TTITLE4=Black Lung
TTITLE5=Hard Luck
TTITLE6=Broke Ass Blues
TTITLE7=Putain !
TTITLE8=Poopdeflex
TTITLE9=Waynedale
EXTD=
EXTT0=
EXTT1=
EXTT2=
EXTT3=
EXTT4=
EXTT5=
EXTT6=
EXTT7=
EXTT8=
EXTT9=
PLAYORDER=
